<svg id="logosandtypes_com" xmlns="http://www.w3.org/2000/svg" viewBox="0 0 150 150.2"><style>.st1{fill:#d51f26}</style><g id="Layer_3_2_"><g id="Layer_2_1_"><path id="Layer_3" d="M0 .2h150v150H0V.2z" fill="none"/></g></g><g id="Jotanunes"><path class="st1" d="M113.7 38.8l-15-10.2c.1 18.4.2 69.6.4 82.1.2 12.9-5.2 16.7-5.2 16.7 21.9-.6 20-16.1 20-16.1l-.2-72.5zM134.7 53l-14.3-9.7c.1 15.4.2 49.7.4 61.4.2 12.9-4.9 16.7-4.9 16.7 20.8-.6 19-16.1 19-16.1l-.2-52.3zM92.1 117.8L91.8 24 75.7 13.1c0 13.8.1 46.7.2 72.2L64.7 76l-13.4 2.3L76 99.8v7.6l-31.6-28L29 82.1 75.3 124c-.5 1.7-1 3.1-1.7 4.4L23.4 83.2 6.8 86 58 134.1s5.6 1.5 10.4.8c22.9-.9 23.7-17.1 23.7-17.1z"/></g></svg>